Coordinates
version=1
nRows=12
nColumns=24
inDegrees=yes

Units are S.I. units (second, meters, Newtons, ...)
Angles are in degrees.

endheader
time	pelvis_tilt	pelvis_list	pelvis_rotation	pelvis_tx	pelvis_ty	pelvis_tz	hip_flexion_r	hip_adduction_r	hip_rotation_r	knee_angle_r	ankle_angle_r	subtalar_angle_r	mtp_angle_r	hip_flexion_l	hip_adduction_l	hip_rotation_l	knee_angle_l	ankle_angle_l	subtalar_angle_l	mtp_angle_l	lumbar_extension	lumbar_bending	lumbar_rotation
      2.27000000	     61.14412942	      5.30930417	      8.94954281	      0.77239833	      1.08426746	     -0.27290495	     -3.66267032	    -12.17310575	     -3.94846547	    -52.42245257	    -16.64747793	      1.00616240	     48.54557538	     15.96177376	    -12.36341613	     14.31886087	    -13.94321117	    -20.34476105	     10.95024248	    -33.83722151	      0.00000000	      0.00000000	      0.00000000
      2.28000000	     61.14574670	      5.31164603	      8.94773154	      0.77239052	      1.08427014	     -0.27290884	     -3.66287494	    -12.17470119	     -3.94755649	    -52.42378264	    -16.64540851	      1.01068337	     48.53493298	     15.95884200	    -12.36100862	     14.31622770	    -13.93993988	    -20.35036111	     10.95437191	    -33.86984199	      0.00000000	      0.00000000	      0.00000000
      2.29000000	     61.14748181	      5.31381414	      8.94614494	      0.77238371	      1.08427999	     -0.27290673	     -3.66300280	    -12.17627993	     -3.94816409	    -52.42430376	    -16.64379178	      1.01320432	     48.52690027	     15.95631635	    -12.35739037	     14.31385082	    -13.93820274	    -20.35874956	     10.95806626	    -33.89860588	      0.00000000	      0.00000000	      0.00000000
      2.30000000	     61.14924194	      5.31563064	      8.94509304	      0.77237716	      1.08428881	     -0.27290317	     -3.66317442	    -12.17730930	     -3.95046888	    -52.42356696	    -16.64299495	      1.01320827	     48.52177651	     15.95434290	    -12.35303054	     14.31202298	    -13.93788042	    -20.37081385	     10.95993319	    -33.92220139	      0.00000000	      0.00000000	      0.00000000
      2.31000000	     61.15082352	      5.31690640	      8.94452561	      0.77237039	      1.08429388	     -0.27290406	     -3.66381546	    -12.17751297	     -3.95419728	    -52.42162046	    -16.64323011	      1.01066587	     48.51941543	     15.95296884	    -12.34889785	     14.31108222	    -13.93857205	    -20.38636305	     10.95904125	    -33.93992537	      0.00000000	      0.00000000	      0.00000000
      2.32000000	     61.15223897	      5.31730972	      8.94417864	      0.77236428	      1.08429884	     -0.27290847	     -3.66522017	    -12.17671140	     -3.95868919	    -52.41874338	    -16.64455291	      1.00614514	     48.51931335	     15.95215080	    -12.34569284	     14.31117706	    -13.93963081	    -20.40400986	     10.95517197	    -33.95172815	      0.00000000	      0.00000000	      0.00000000
      2.33000000	     61.15358782	      5.31657383	      8.94395220	      0.77235959	      1.08430619	     -0.27291018	     -3.66729907	    -12.17475277	     -3.96309515	    -52.41521641	    -16.64687641	      1.00071931	     48.52072533	     15.95153504	    -12.34368484	     14.31215317	    -13.94052343	    -20.42153984	     10.94884909	    -33.95813070	      0.00000000	      0.00000000	      0.00000000
      2.34000000	     61.15490143	      5.31487493	      8.94396441	      0.77235705	      1.08431446	     -0.27290681	     -3.66974682	    -12.17160823	     -3.96665038	    -52.41132540	    -16.64995562	      0.99566977	     48.52278568	     15.95060917	    -12.34300287	     14.31359275	    -13.94105184	    -20.43659524	     10.94113727	    -33.96002733	      0.00000000	      0.00000000	      0.00000000
      2.35000000	     61.15614926	      5.31264917	      8.94428972	      0.77235732	      1.08432305	     -0.27289947	     -3.67236978	    -12.16755239	     -3.96891967	    -52.40750486	    -16.65338410	      0.99211588	     48.52462319	     15.94906037	    -12.34362848	     14.31489678	    -13.94126893	    -20.44737490	     10.93332444	    -33.95844071	      0.00000000	      0.00000000	      0.00000000
      2.36000000	     61.15733407	      5.31019371	      8.94475608	      0.77235971	      1.08433433	     -0.27288863	     -3.67512258	    -12.16320626	     -3.96993729	    -52.40434272	    -16.65665232	      0.99072823	     48.52547374	     15.94689934	    -12.34522086	     14.31542660	    -13.94130558	    -20.45311329	     10.92660865	    -33.95431150	      0.00000000	      0.00000000	      0.00000000
      2.37000000	     61.15864161	      5.30769762	      8.94492703	      0.77236265	      1.08434961	     -0.27287695	     -3.67784034	    -12.15929232	     -3.97020171	    -52.40237337	    -16.65926339	      0.99161119	     48.52479085	     15.94438317	    -12.34717299	     14.31477142	    -13.94124191	    -20.45422956	     10.92185819	    -33.94837920	      0.00000000	      0.00000000	      0.00000000
      2.38000000	     61.16034382	      5.30530780	      8.94432911	      0.77236642	      1.08436489	     -0.27286805	     -3.68008625	    -12.15636331	     -3.97043183	    -52.40185472	    -16.66086491	      0.99435399	     48.52234155	     15.94176017	    -12.34877245	     14.31302537	    -13.94108355	    -20.45215054	     10.91946359	    -33.94115586	      0.00000000	      0.00000000	      0.00000000
